PathFileType	4	(X/Y/Z)	/Users/itak/Documents/Research/Walk-IL/dataset/trc/00460_00167.trc
DataRate	CameraRate	NumFrames	NumMarkers	Units	OrigDataRate	OrigDataStartFrame	OrigNumFrames
100.000000	100.000000	4	53	mm	100.000000	426	683
Frame#	Time	RPSI			LPSI			L3			STRN			T10			C7			CLAV			RBAK			LBAK			LSHO			LUPA			LAEL			LAOL			LWTS			LWPS			LFRA			LIFD			LHPS			LHTS			RSHO			RUPA			RAEL			RAOL			RWTS			RWPS			RFRA			RIFD			RHTS			RHPS			RBHD			LFHD			RFHD			LBHD			LHIP			RHIP			RASI			LASI			LKNE			LTHI			LANK			LTIP			LTOE			LMT1			LMT5			LHEE			RKNE			RTHI			RANK			RTIP			RTOE			RMT1			RMT5			RHEE			
		X1	Y1	Z1	X2	Y2	Z2	X3	Y3	Z3	X4	Y4	Z4	X5	Y5	Z5	X6	Y6	Z6	X7	Y7	Z7	X8	Y8	Z8	X9	Y9	Z9	X10	Y10	Z10	X11	Y11	Z11	X12	Y12	Z12	X13	Y13	Z13	X14	Y14	Z14	X15	Y15	Z15	X16	Y16	Z16	X17	Y17	Z17	X18	Y18	Z18	X19	Y19	Z19	X20	Y20	Z20	X21	Y21	Z21	X22	Y22	Z22	X23	Y23	Z23	X24	Y24	Z24	X25	Y25	Z25	X26	Y26	Z26	X27	Y27	Z27	X28	Y28	Z28	X29	Y29	Z29	X30	Y30	Z30	X31	Y31	Z31	X32	Y32	Z32	X33	Y33	Z33	X34	Y34	Z34	X35	Y35	Z35	X36	Y36	Z36	X37	Y37	Z37	X38	Y38	Z38	X39	Y39	Z39	X40	Y40	Z40	X41	Y41	Z41	X42	Y42	Z42	X43	Y43	Z43	X44	Y44	Z44	X45	Y45	Z45	X46	Y46	Z46	X47	Y47	Z47	X48	Y48	Z48	X49	Y49	Z49	X50	Y50	Z50	X51	Y51	Z51	X52	Y52	Z52	X53	Y53	Z53	

427	4.26	184.1380615234375	928.1322021484375	-255.8831787109375	324.2477111816406	907.5011596679688	-242.8909759521484	228.8614959716797	1009.875122070312	-246.0134582519531	230.3971252441406	1224.790283203125	16.72305107116699	226.7892608642578	1133.622802734375	-267.6485900878906	216.2576141357422	1405.575927734375	-214.2288818359375	235.9187316894531	1334.8994140625	-26.80071640014648	120.5534439086914	1284.3408203125	-269.1707458496094	314.7093505859375	1356.14892578125	-250.2171020507812	398.9775390625	1380.325317382812	-152.4214019775391	492.2828674316406	1259.78125	-163.1399536132812	530.62060546875	1047.555419921875	-136.1320190429688	457.7284851074219	1030.425048828125	-207.4132080078125	502.3262329101562	842.1820678710938	-53.84822463989258	554.2789306640625	831.3748779296875	-106.1652450561523	545.5472412109375	960.3411865234375	-116.1338653564453	517.153564453125	671.2352294921875	-61.56204605102539	558.8253784179688	752.56298828125	-102.4949493408203	518.4840698242188	753.6453247070312	-43.11322784423828	57.55523300170898	1384.372436523438	-144.0464324951172	-19.88069915771484	1325.50390625	-160.7878723144531	-95.38426971435547	1045.6396484375	-146.1673889160156	-56.39064788818359	1024.402221679688	-196.4147796630859	-61.39413452148438	843.279052734375	-39.17014694213867	-121.2252883911133	829.145751953125	-102.366096496582	-108.7100601196289	987.8232421875	-139.2239837646484	-83.02149200439453	689.5838623046875	-25.06263732910156	-81.96071624755859	749.032958984375	-16.28644943237305	-126.0951614379883	744.0964965820312	-78.48468017578125	135.3551177978516	1611.852905273438	-116.9414901733398	316.1548461914062	1629.541137695312	-17.40558433532715	188.316650390625	1635.360717773438	8.381065368652344	306.4178466796875	1607.289184570312	-168.5166931152344	425.7042236328125	818.0902709960938	-85.37718200683594	27.48154067993164	836.5368041992188	-156.7438812255859	82.23680877685547	871.4667358398438	-42.96447372436523	335.8740234375	868.3025512695312	-5.680330753326416	417.4545288085938	442.8349304199219	88.66645812988281	431.068603515625	584.4252319335938	44.52174377441406	439.6369018554688	43.27167129516602	210.5533905029297	441.7136535644531	313.8790283203125	143.5245361328125	359.9682312011719	146.6805725097656	413.5424194335938	333.30322265625	121.8410873413086	340.5253295898438	442.019775390625	101.9247207641602	349.8163757324219	378.2571411132812	34.46053695678711	163.1323852539062	83.01824188232422	444.6347351074219	-183.1806488037109	32.30347061157227	696.7056274414062	-125.0490417480469	106.8404922485352	49.38153839111328	-356.0838928222656	86.40446472167969	302.5773315429688	-222.5621185302734	184.3099365234375	41.66397476196289	-148.9871826171875	209.0862121582031	48.69060516357422	-218.1973724365234	99.70342254638672	43.8084716796875	-221.0089416503906	145.8629302978516	53.58539199829102	-428.1474304199219	
428	4.27	188.2756652832031	927.4898071289062	-247.6141815185547	328.1009826660156	906.069580078125	-233.9986877441406	232.7021026611328	1008.536560058594	-237.8515625	233.2274475097656	1224.209350585938	24.67378997802734	230.4805450439453	1132.136352539062	-259.6537170410156	219.5246734619141	1404.295654296875	-207.0002288818359	238.8432464599609	1334.184814453125	-19.23030662536621	124.2095413208008	1282.848876953125	-261.8961791992188	317.9706726074219	1354.688232421875	-242.6124877929688	402.2088012695312	1379.17333984375	-144.8460388183594	495.3066101074219	1258.35107421875	-155.5058288574219	532.8101196289062	1045.994873046875	-128.6854248046875	459.6929321289062	1029.26318359375	-199.8179626464844	504.1591796875	840.209228515625	-47.43185806274414	556.0450439453125	829.6202392578125	-99.80674743652344	547.5443725585938	958.6724243164062	-109.1179275512695	518.6886596679688	669.2720336914062	-56.25255584716797	560.4886474609375	750.7947387695312	-96.64813232421875	520.1054077148438	751.5508422851562	-37.27387237548828	60.64529418945312	1383.05078125	-137.2300872802734	-16.56646156311035	1324.03369140625	-154.3279113769531	-91.51526641845703	1044.2080078125	-141.6802215576172	-52.18995666503906	1023.566467285156	-191.5107879638672	-59.31383895874023	840.5145263671875	-36.91362380981445	-118.3069686889648	827.146240234375	-101.0920486450195	-105.0259246826172	986.3361206054688	-135.6607818603516	-81.25183868408203	686.832763671875	-24.59626007080078	-80.31682586669922	746.1852416992188	-15.23696708679199	-123.4665603637695	741.8092041015625	-78.15608215332031	138.5378265380859	1610.9560546875	-110.6079864501953	319.3741455078125	1628.96630859375	-11.25473117828369	191.5881500244141	1635.015991210938	14.48816776275635	309.5842895507812	1606.0234375	-162.2917022705078	428.5461120605469	816.4383544921875	-76.08067321777344	29.86431121826172	837.1300048828125	-149.9423065185547	84.83172607421875	871.0203857421875	-35.17546081542969	338.3826599121094	867.1484985351562	3.431577444076538	418.0354614257812	440.2741088867188	96.81148529052734	431.9645080566406	582.5338745117188	53.41157150268555	438.4632263183594	40.07600784301758	214.2270202636719	441.7294921875	310.4622192382812	150.3887481689453	361.4024047851562	141.0932922363281	419.6835327148438	333.7409973144531	117.4057922363281	346.4154052734375	442.7621459960938	97.51924896240234	354.0308227539062	376.4499206542969	31.9686279296875	167.4996643066406	84.25560760498047	444.7642822265625	-177.6735382080078	35.61676025390625	695.9482421875	-117.7285919189453	106.5121765136719	50.87555694580078	-355.5458679199219	87.15165710449219	303.0834045410156	-218.9921875	184.3053894042969	41.6344108581543	-148.927001953125	208.9254302978516	48.75470733642578	-217.9705657958984	99.61437225341797	43.77467727661133	-220.83056640625	145.4822235107422	56.46216201782227	-427.6425170898438	
429	4.28	192.5598754882812	926.8468017578125	-239.1915893554688	332.089111328125	904.6558837890625	-224.8555145263672	236.6733093261719	1007.246643066406	-229.5656127929688	236.1461486816406	1223.753051757812	32.69874572753906	234.3544158935547	1130.732299804688	-251.5667724609375	222.8864135742188	1403.109130859375	-199.7222747802734	241.8612976074219	1333.598266601562	-11.59866714477539	127.9939193725586	1281.430786132812	-254.5514373779297	321.308349609375	1353.309936523438	-234.9332580566406	405.5427551269531	1378.15283203125	-137.2234649658203	498.4436645507812	1257.0712890625	-147.8626708984375	535.0804443359375	1044.546875	-121.2517776489258	461.7104797363281	1028.231811523438	-192.2069854736328	505.9624938964844	838.4281005859375	-40.91222763061523	557.769775390625	827.990966796875	-93.32656097412109	549.5724487304688	957.121826171875	-102.0652236938477	520.115478515625	667.5067138671875	-50.69258499145508	562.054931640625	749.1507568359375	-90.61894989013672	521.6435546875	749.6513061523438	-31.2513427734375	63.82928085327148	1381.803833007812	-130.3286590576172	-13.13987159729004	1322.634765625	-147.7689666748047	-87.508056640625	1042.856201171875	-137.1544342041016	-47.88751983642578	1022.8056640625	-186.5721282958984	-57.03544998168945	837.88720703125	-34.57114028930664	-115.1393508911133	825.2907104492188	-99.74967956542969	-101.1777725219727	984.939208984375	-132.0580291748047	-79.24662780761719	684.22119140625	-24.08656883239746	-78.43550872802734	743.4834594726562	-14.14636135101318	-120.5336380004883	739.6590576171875	-77.81910705566406	141.7536315917969	1610.12939453125	-104.262077331543	322.6199340820312	1628.533447265625	-5.070566177368164	194.8687286376953	1634.796997070312	20.61440467834473	312.7911987304688	1604.83984375	-155.9953155517578	431.5428161621094	814.9009399414062	-66.36518859863281	32.73456573486328	837.534912109375	-142.8380889892578	87.44138336181641	870.6634521484375	-27.27054595947266	340.9048461914062	866.1195678710938	12.80982112884521	418.5950317382812	437.6495971679688	104.8008499145508	432.81689453125	580.6193237304688	62.34154891967773	437.4757690429688	36.96296310424805	216.8787384033203	441.6834716796875	306.9237976074219	156.9578094482422	362.3171997070312	134.3255310058594	425.0813293457031	333.8955383300781	112.1365280151367	351.3924560546875	443.2071228027344	92.36788940429688	357.4969482421875	374.9613037109375	29.78815460205078	170.6198425292969	85.52140045166016	444.9793395996094	-171.9354858398438	38.89441680908203	695.2640380859375	-110.1904296875	106.1628036499023	52.58520889282227	-354.9429321289062	87.87462615966797	303.6918334960938	-215.1906280517578	184.3221740722656	41.60849761962891	-148.8628845214844	208.7803497314453	48.84080505371094	-217.7075500488281	99.53423309326172	43.74704742431641	-220.6079254150391	145.0480346679688	59.63145446777344	-427.031494140625	
430	4.29	196.9676055908203	926.2164306640625	-230.6004943847656	336.2081909179688	903.3187866210938	-215.4415283203125	240.7667846679688	1006.008972167969	-221.1265869140625	239.1369781494141	1223.43896484375	40.79265213012695	238.4078369140625	1129.42333984375	-243.3468475341797	226.3567504882812	1402.042846679688	-192.4016876220703	244.9668579101562	1333.153442382812	-3.909105062484741	131.9194793701172	1280.100341796875	-247.1502227783203	324.743408203125	1352.041381835938	-227.1837921142578	408.9831237792969	1377.277587890625	-129.5466461181641	501.6984252929688	1255.955078125	-140.1976470947266	537.4407958984375	1043.223388671875	-113.828125	463.7867126464844	1027.343872070312	-184.5779571533203	507.7512512207031	836.8493041992188	-34.27677917480469	559.4619750976562	826.4989624023438	-86.72489166259766	551.6438598632812	955.7015991210938	-94.97449493408203	521.4243774414062	665.9500732421875	-44.86978149414062	563.5234375	747.635986328125	-84.40908050537109	523.125	747.95849609375	-25.0342960357666	67.11666107177734	1380.651489257812	-123.3649520874023	-9.598155975341797	1321.322387695312	-141.1352233886719	-83.37803649902344	1041.60400390625	-132.5849609375	-43.47524642944336	1022.120422363281	-181.6030120849609	-54.54558181762695	835.4183349609375	-32.10888290405273	-111.7279815673828	823.6041259765625	-98.28916168212891	-97.17605590820312	983.6520385742188	-128.3851776123047	-76.9930419921875	681.7593994140625	-23.52516555786133	-76.30220031738281	740.9349975585938	-12.98601245880127	-117.336181640625	737.6802978515625	-77.40680694580078	145.0009155273438	1609.401123046875	-97.90061950683594	325.8939208984375	1628.270874023438	1.148263096809387	198.1529998779297	1634.729248046875	26.77350234985352	316.0397338867188	1603.775390625	-149.6271362304688	434.6401062011719	813.509033203125	-56.23865509033203	36.00448608398438	837.7643432617188	-135.4350891113281	90.07194519042969	870.376220703125	-19.25416564941406	343.4390869140625	865.2205200195312	22.47604370117188	419.2207336425781	435.0499572753906	112.5382308959961	433.6863098144531	578.6599731445312	71.18464660644531	436.7089538574219	34.20308685302734	218.89404296875	441.633056640625	303.4508972167969	163.2793884277344	362.5803527832031	126.6519088745117	430.0421752929688	333.7247009277344	106.3506088256836	355.7489013671875	443.2885131835938	86.68141937255859	360.6114501953125	373.8648986816406	28.2188720703125	172.8237762451172	86.83392333984375	445.2733459472656	-165.9374847412109	42.07364654541016	694.6626586914062	-102.4256973266602	105.7999801635742	54.53117370605469	-354.263916015625	88.58672332763672	304.4013366699219	-211.1277313232422	184.3609924316406	41.58226013183594	-148.7902526855469	208.6608734130859	48.95821762084961	-217.4006805419922	99.47555541992188	43.72808837890625	-220.3372497558594	144.5742492675781	63.1109619140625	-426.2970275878906	
